HIERARCHY
ROOT Hips
{
	OFFSET 0.00000 0.00000 0.00000
	CHANNELS 6 Xposition Yposition Zposition Zrotation Yrotation Xrotation 
	JOINT LHipJoint
	{
		OFFSET 0 0 0
		CHANNELS 3 Zrotation Yrotation Xrotation
		JOINT LeftHip
		{
			OFFSET 1.41261 -1.82971 0.84908
			CHANNELS 3 Zrotation Yrotation Xrotation
			JOINT LeftKnee
			{
				OFFSET 2.52554 -6.93888 0.00000
				CHANNELS 3 Zrotation Yrotation Xrotation
				JOINT LeftAnkle
				{
					OFFSET 2.56654 -7.05152 0.00000
					CHANNELS 3 Zrotation Yrotation Xrotation
					JOINT LeftToe
					{
						OFFSET 0.21698 -0.59616 1.85369
						CHANNELS 3 Zrotation Yrotation Xrotation
						End Site
						{
							OFFSET 0.00000 -0.00000 0.97832
						}
					}
				}
			}
		}
	}
	JOINT RHipJoint
	{
		OFFSET 0 0 0
		CHANNELS 3 Zrotation Yrotation Xrotation
		JOINT RightHip
		{
			OFFSET -1.12808 -1.82971 0.84907
			CHANNELS 3 Zrotation Yrotation Xrotation
			JOINT RightKnee
			{
				OFFSET -2.53425 -6.96280 0.00000
				CHANNELS 3 Zrotation Yrotation Xrotation
				JOINT RightAnkle
				{
					OFFSET -2.58413 -7.09983 0.00000
					CHANNELS 3 Zrotation Yrotation Xrotation
					JOINT RightToe
					{
						OFFSET -0.26437 -0.72636 1.92241
						CHANNELS 3 Zrotation Yrotation Xrotation
						End Site
						{
							OFFSET -0.00000 -0.00000 1.02667
						}
					}
				}
			}
		}
	}
	JOINT lowerback
	{
		OFFSET 0 0 0
		CHANNELS 3 Zrotation Yrotation Xrotation
		JOINT Chest
		{
			OFFSET -0.02096 2.02288 -0.14752
			CHANNELS 3 Zrotation Yrotation Xrotation
			JOINT Chest2
			{
				OFFSET 0.03477 2.03136 -0.02358
				CHANNELS 3 Zrotation Yrotation Xrotation
				JOINT lowerneck
				{
					OFFSET 0 0 0
					CHANNELS 3 Zrotation Yrotation Xrotation
					JOINT Neck
					{
						OFFSET 0.00174 1.74359 0.19336
						CHANNELS 3 Zrotation Yrotation Xrotation
						JOINT Head
						{
							OFFSET -0.03054 1.76140 -0.17751
							CHANNELS 3 Zrotation Yrotation Xrotation
							End Site
							{
								OFFSET -0.00863 1.77239 -0.08120
							}
						}
					}
				}
				JOINT LeftCollar
				{
					OFFSET 0 0 0
					CHANNELS 3 Zrotation Yrotation Xrotation
					JOINT LeftShoulder
					{
						OFFSET 3.68685 1.32687 -0.67367
CHANNELS 3 Zrotation Xrotation Yrotation
						JOINT LeftElbow
						{
OFFSET 0 -4.764680 -0.000000
CHANNELS 3 Zrotation Xrotation Yrotation
							JOINT LeftWrist
							{
OFFSET 0 -3.527120 -0.000000
CHANNELS 3 Zrotation Xrotation Yrotation
								JOINT lhand
								{
									OFFSET 0 0 0
CHANNELS 3 Zrotation Xrotation Yrotation
									JOINT LFingers
									{
OFFSET 0 -0.859560 -0.000000
CHANNELS 3 Zrotation Xrotation Yrotation
										End Site
										{
OFFSET 0 -0.693000 -0.000000
										}
									}
								}
								JOINT LThumb
								{
OFFSET 0 0.000000 0.000000
CHANNELS 3 Zrotation Xrotation Yrotation
									End Site
									{
OFFSET 0 -0.703580 0.703580
									}
								}
							}
						}
					}
				}
				JOINT RightCollar
				{
					OFFSET 0 0 0
					CHANNELS 3 Zrotation Yrotation Xrotation
					JOINT RightShoulder
					{
						OFFSET -3.31304 1.28268 -0.97357
CHANNELS 3 Zrotation Xrotation Yrotation
						JOINT RightElbow
						{
OFFSET 0 -4.905770 -0.000000
CHANNELS 3 Zrotation Xrotation Yrotation
							JOINT RightWrist
							{
OFFSET 0 -3.426920 0.000000
CHANNELS 3 Zrotation Xrotation Yrotation
								JOINT rhand
								{
									OFFSET 0 0 0
CHANNELS 3 Zrotation Xrotation Yrotation
									JOINT RFingers
									{
OFFSET 0 -0.740960 -0.000000
CHANNELS 3 Zrotation Xrotation Yrotation
										End Site
										{
OFFSET 0 -0.597380 -0.000000
										}
									}
								}
								JOINT RThumb
								{
OFFSET 0 0.000000 0.000000
CHANNELS 3 Zrotation Xrotation Yrotation
									End Site
									{
OFFSET 0 -0.606500 0.606500
									}
								}
							}
						}
					}
				}
			}
		}
	}
}
MOTION
Frames: 4
Frame Time: 0.008333333333333333
-4.521900 17.982000 -17.552000 1.704400 1.110200 4.895200 0.000000 0.000000 0.000000 -25.497600 2.216600 -8.584700 0.614500 5.017000 13.957000 0.306400 -10.962500 -11.693600 1.821100 -8.483100 -24.191400 0.000000 0.000000 0.000000 17.248200 7.063000 -14.725300 -2.423400 -9.697200 28.001700 -0.833700 -0.607700 -17.484600 -0.177700 -2.715700 7.488100 -6.533700 -0.628200 15.809800 1.510300 -1.812500 2.876300 5.689000 -0.767800 -5.528300 -9.571600 -9.949700 -0.402500 8.185300 -13.187500 -3.129500 4.147400 -6.579100 0.346200 0.000000 0.000000 0.000000 -8.590300 3.992100 -12.380700 29.615000 -40.561100 11.158400 10.992500 -1.246700 14.265800 0.000000 0.000000 0.000000 -7.125000 0.000000 0.000000 -11.214300 15.640700 -7.931100 0.000000 0.000000 0.000000 -1.636700 -8.289200 16.397500 -18.115700 -28.305000 -4.604000 -10.370600 4.848500 36.940400 0.000000 0.000000 0.000000 7.125000 0.000000 -0.000000 30.357200 64.903500 -15.264200
-4.513742 17.986772 -17.616032 1.749423 1.165458 5.178265 0.000000 0.000000 0.000000 -25.593802 2.114087 -9.175842 0.617194 5.027852 13.988016 0.275692 -11.159907 -11.427005 1.872126 -8.594310 -24.534418 0.000000 0.000000 0.000000 17.087350 7.346527 -15.287581 -2.443718 -9.734757 28.122145 -0.793834 -0.872448 -17.170674 -0.147069 -2.467961 6.800987 -6.320824 -0.574712 16.452122 1.569945 -1.736847 3.072167 5.636050 -0.732244 -5.682993 -9.603385 -9.927458 -0.380181 8.486143 -13.138706 -3.706173 4.279697 -6.556088 0.175499 0.000000 0.000000 0.000000 -8.553358 3.787613 -14.010208 29.749683 -40.677774 11.246136 11.670763 -1.408704 14.387245 0.000000 0.000000 0.000000 -7.125000 0.000000 0.000000 -10.752992 15.472616 -7.631796 0.000000 0.000000 0.000000 -1.754759 -8.866566 16.892748 -18.116777 -28.306462 -4.604462 -10.381144 4.774694 36.883141 0.000000 0.000000 0.000000 7.125000 0.000000 0.000000 30.275159 64.858401 -15.188008
-4.503589 17.990249 -17.685403 1.835535 1.145656 5.511047 0.000000 0.000000 0.000000 -25.755844 1.955764 -9.902116 0.632559 5.088690 14.161712 0.254152 -11.228706 -11.207108 1.922342 -8.702176 -24.868161 0.000000 0.000000 0.000000 16.846856 7.646068 -15.919316 -2.456163 -9.757755 28.195838 -0.758605 -1.033286 -16.858311 -0.145773 -2.459802 6.778208 -6.111399 -0.497713 17.063114 1.595835 -1.628031 3.305242 5.538345 -0.683854 -5.784356 -9.581301 -9.942208 -0.563957 8.714405 -13.131110 -4.016736 4.353379 -6.551411 0.122297 0.000000 0.000000 0.000000 -8.465513 3.565763 -15.802133 29.983692 -40.878891 11.399120 12.232767 -1.638921 14.624302 0.000000 0.000000 0.000000 -7.125000 0.000000 0.000000 -10.369819 15.194744 -7.412676 0.000000 0.000000 0.000000 -1.832376 -9.502061 17.392579 -18.104051 -28.290184 -4.598399 -10.526927 4.822107 36.793527 0.000000 0.000000 0.000000 7.125000 0.000000 0.000000 30.009941 64.823331 -15.019553
-4.492429 17.992371 -17.760451 1.886945 1.092548 5.868128 0.000000 0.000000 0.000000 -25.886687 1.749413 -10.686278 0.651980 5.164832 14.379258 0.234211 -11.195244 -10.954317 1.926596 -8.711079 -24.895919 0.000000 0.000000 0.000000 16.628266 7.927745 -16.604938 -2.465677 -9.775243 28.251874 -0.726531 -1.120944 -16.544300 -0.151573 -2.508726 6.913776 -5.854095 -0.412059 17.710260 1.625864 -1.497634 3.564682 5.412221 -0.626614 -5.878623 -9.468842 -10.004511 -0.994502 8.781880 -13.180678 -3.990461 4.325579 -6.571398 0.208614 0.000000 0.000000 0.000000 -8.344554 3.347736 -17.743811 30.325985 -41.170074 11.623990 12.748158 -1.988373 14.933052 0.000000 0.000000 0.000000 -7.125000 0.000000 0.000000 -10.019071 14.845938 -7.229760 0.000000 0.000000 0.000000 -1.909206 -10.181726 17.939924 -18.084901 -28.265708 -4.589332 -10.736235 4.909451 36.759242 0.000000 0.000000 0.000000 7.125000 0.000000 0.000000 29.745186 64.852524 -14.895502
